# xmcd
#
# Track frame offsets: 
#        150
#        13149
#        27197
#        36754
#        44773
#        59080
#        73256
#        86807
#        100134
#        114227
#        128547
#        141830
#        154238
#        167314
#        183416
#        195026
#
# Disc length: 2782 seconds
#
# Revision: 1
# Processed by: cddbd v1.5.2PL0 Copyright (c) Steve Scherf et al.
# Submitted via: ExactAudioCopy v0.95b3
#
DISCID=d60adc10
DTITLE=Leadbelly - Easy Rider Blues
DYEAR=2003
DGENRE=Blues
TTITLE0=Good Morning Blues
TTITLE1=Whoa Back Buck
TTITLE2=Midnight Special
TTITLE3=Irene
TTITLE4=Alberta
TTITLE5=Roberta
TTITLE6=Pick A Bale Of Cotton
TTITLE7=Grey Goose
TTITLE8=Red Cross Store Blues
TTITLE9=Easy Rider
TTITLE10=CC Rider
TTITLE11=Eagle Rock Rag
TTITLE12=Rock Island Line
TTITLE13=Leaving Blues
TTITLE14=Little Sally Walker
TTITLE15=Alabama Bound
EXTD=Our World Inc - 804558331926\nBlues Reference Masters
EXTT0=
EXTT1=
EXTT2=
EXTT3=
EXTT4=
EXTT5=
EXTT6=
EXTT7=
EXTT8=
EXTT9=
EXTT10=
EXTT11=
EXTT12=
EXTT13=
EXTT14=
EXTT15=
PLAYORDER=
